<svg t="1716081649150" class="icon" viewBox="0 0 1024 1024" version="1.1" xmlns="http://www.w3.org/2000/svg" p-id="4662" width="20" height="20"><path d="M1009.1776 512.83456c0 273.12128-221.3888 494.50496-494.52544 494.50496-273.12128 0-494.51008-221.38368-494.51008-494.50496s221.3888-494.52544 494.51008-494.52544c273.13664 0 494.52544 221.40416 494.52544 494.52544" fill="#F8D44C" p-id="4663"></path><path d="M342.59968 538.70592V356.59776H279.94112c-8.64256 0-16.46592-5.07392-19.3536-12.62592-2.93376-7.55712-0.4096-16.09216 6.27712-21.19168L499.38944 105.5744a21.5552 21.5552 0 0 1 13.06624-4.33664c4.82816 0 9.43616 1.536 13.09696 4.33664l232.55552 217.20576c6.656 5.10464 9.15456 13.63968 6.26688 21.19168-2.90304 7.55712-10.72128 12.65664-19.43552 12.65664h-62.5664v182.22592c0 10.46016-9.24672 18.97984-20.57728 18.97984H365.85472s-23.25504 2.84672-23.25504-19.12832" fill="#333333" p-id="4664"></path><path d="M465.02912 477.312h92.47744v46.23872H465.02912z" fill="#F8D44C" p-id="4665"></path><path d="M476.7232 697.48736v149.44256h-13.31712v-10.84928H329.25696v10.84928h-13.31712v-149.44256h67.32288c2.46784-9.3696 4.19328-18.99008 5.18144-28.85632H287.82592v-12.82048h65.1008c-3.94752-11.18208-8.46848-21.21216-13.56288-30.08512l13.07136-4.93568c5.0944 9.53856 9.86624 21.21216 14.30016 35.0208h57.70752a266.28096 266.28096 0 0 0 15.53408-35.51232l13.31712 4.6848c-4.77184 12.4928-9.61536 22.76864-14.55104 30.82752H504.832v12.82048H402.7392c-1.31584 8.71424-3.37408 18.33472-6.16448 28.85632H476.7232z m-147.46624 42.1632h134.14912v-29.83424H329.25696v29.83424z m0 41.68192h134.14912v-29.83936H329.25696v29.83936z m0 42.41408h134.14912v-30.58176H329.25696v30.58176zM717.40416 676.77184v114.66752h-13.32224v-101.35552h-123.29984v102.0928h-13.31712v-115.40992h62.63296a179.34336 179.34336 0 0 0 5.91872-30.58176h-101.10464v-12.82048h216.01792v12.82048h-100.608a221.71648 221.71648 0 0 1-6.41536 30.58176h73.4976z m-81.13664 30.08512h13.32224v39.45472c-0.49664 26.79808-8.87808 48.09216-25.15456 63.872-15.9488 14.96064-41.75872 26.63424-77.42976 35.01568l-7.89504-11.83744c35.51232-7.88992 60.8256-18.65728 75.9552-32.3072 13.48096-14.13632 20.55168-32.384 21.20704-54.74304v-39.45472z m21.45792 87.29088c32.54784 11.50976 61.81376 25.15456 87.78752 40.9344l-8.13568 12.32896c-27.9552-17.75616-56.96512-31.81056-87.05024-42.1632l7.3984-11.10016z" fill="#333333" p-id="4666"></path></svg>